<mxfile host="app.diagrams.net" modified="2024-05-03T07:30:08.618Z" agent="Mozilla/5.0 (Macintosh; Intel Mac OS X 10_15_7) AppleWebKit/537.36 (KHTML, like Gecko) Chrome/124.0.0.0 Safari/537.36" version="24.2.5" etag="jcYpo8S6hw3Ukj5M9PYO" type="github">
  <diagram name="Page-1" id="D91hNPcnWtRux3lb_J_X">
    <mxGraphModel>
      <root>
        <mxCell id="0" />
        <mxCell id="1" parent="0" />
      </root>
    </mxGraphModel>
  </diagram>
</mxfile>
